<?xml version="1.0" standalone="no"?>
<!DOCTYPE svg PUBLIC "-//W3C//DTD SVG 20010904//EN"
 "http://www.w3.org/TR/2001/REC-SVG-20010904/DTD/svg10.dtd">
<svg version="1.0" xmlns="http://www.w3.org/2000/svg"
 width="1280.000000pt" height="1168.000000pt" viewBox="0 0 1280.000000 1168.000000"
 preserveAspectRatio="xMidYMid meet">
<g transform="translate(0.000000,1168.000000) scale(0.100000,-0.100000)"
fill="#000000" stroke="none">
<path d="M1747 11523 c-4 -87 -7 -192 -7 -234 0 -57 -9 -111 -35 -204 -19 -70
-32 -137 -30 -149 3 -11 14 -140 25 -286 11 -146 29 -380 40 -520 20 -255 42
-537 80 -1025 11 -143 22 -278 25 -300 6 -45 27 -425 51 -930 8 -187 17 -349
20 -361 4 -21 49 -43 117 -58 19 -5 27 -13 27 -29 0 -12 7 -164 15 -337 32
-672 55 -1173 74 -1620 11 -256 23 -504 26 -551 11 -163 -26 -762 -54 -890 -5
-20 -45 -98 -90 -172 -158 -265 -203 -321 -496 -617 -246 -248 -283 -290 -376
-425 -115 -166 -153 -248 -198 -426 -43 -167 -45 -197 -21 -342 23 -145 35
-173 130 -307 86 -122 118 -149 270 -240 110 -65 145 -80 288 -122 280 -83
512 -114 746 -98 228 15 331 36 560 111 116 38 216 69 223 69 7 0 15 -12 18
-27 19 -96 60 -192 162 -380 l114 -212 112 -102 c157 -143 324 -281 377 -311
71 -40 287 -128 339 -138 98 -18 288 -40 353 -40 90 0 304 32 460 69 133 32
248 82 393 172 165 103 193 131 381 389 250 343 333 548 357 891 l12 173 72
27 c135 52 218 119 325 262 38 51 73 93 78 95 16 6 27 -33 70 -238 37 -177 44
-200 78 -248 31 -45 48 -58 103 -82 105 -45 211 -53 499 -41 240 10 503 29
727 52 100 10 116 10 138 -5 17 -11 25 -26 25 -45 0 -39 34 -79 74 -87 19 -3
101 1 182 10 82 9 241 20 354 26 457 22 601 30 720 40 208 18 736 59 895 71
83 5 164 16 181 24 21 9 39 29 53 59 l22 45 -251 1128 c-138 620 -314 1409
-390 1753 -78 348 -153 662 -170 709 -30 82 -87 273 -305 1025 -102 353 -106
369 -89 387 19 21 17 6 58 594 9 127 21 282 26 345 6 63 17 230 26 370 14 246
31 538 73 1235 11 182 32 524 46 760 36 620 44 728 52 736 5 3 69 3 143 -1 74
-4 296 -16 492 -25 l357 -18 131 38 c72 21 137 43 145 49 8 6 30 40 50 76 l37
65 8 245 c5 135 5 248 2 251 -4 4 -167 3 -362 -2 -195 -5 -535 -13 -755 -18
l-399 -10 -76 40 c-72 37 -81 39 -165 39 -86 0 -92 -1 -179 -46 l-90 -47 -890
17 c-490 9 -1255 23 -1701 31 -445 8 -965 20 -1155 26 -220 8 -964 14 -2046
16 l-1701 4 -6 -158z m300 -425 c4 -7 13 -62 19 -121 6 -59 15 -112 20 -116 5
-5 26 -12 47 -15 l37 -7 0 125 c0 81 4 127 11 132 6 3 31 -13 55 -37 l44 -44
3 -295 c2 -273 0 -302 -20 -394 -21 -94 -25 -102 -65 -138 -57 -49 -67 -52
-124 -31 l-49 18 -33 100 c-38 112 -44 150 -72 452 -20 210 -20 213 -1 263 27
71 66 120 96 120 13 0 27 -6 32 -12z m923 -93 c640 -27 721 -32 730 -41 6 -6
14 -57 20 -114 14 -149 37 -408 60 -675 12 -126 29 -327 40 -445 10 -118 29
-321 40 -450 12 -129 30 -329 40 -445 24 -265 55 -618 80 -895 10 -118 26
-296 35 -395 9 -99 18 -186 20 -192 3 -7 15 -13 28 -13 42 0 54 -20 61 -100 4
-41 16 -193 27 -337 10 -145 28 -382 39 -528 26 -346 54 -711 85 -1125 51
-682 50 -648 31 -849 l-18 -183 -66 -156 c-54 -128 -88 -190 -183 -332 -64
-97 -155 -228 -202 -292 -98 -131 -329 -381 -358 -386 -21 -4 -63 32 -264 228
-77 76 -187 173 -245 218 -58 44 -155 131 -216 194 -98 100 -118 126 -174 233
-61 117 -64 125 -95 295 -41 221 -42 245 -60 1940 -9 904 -10 1289 -2 1298 5
7 37 20 69 29 33 9 63 24 69 34 5 11 5 149 -1 366 -5 191 -14 726 -20 1188
-13 1074 -27 1593 -46 1774 -8 79 -13 149 -10 157 7 18 37 18 486 -1z m2675
-25 c3 -5 -5 -45 -19 -89 l-24 -80 14 -563 c14 -596 29 -1098 44 -1543 5 -148
16 -497 25 -775 9 -278 18 -515 20 -527 5 -20 12 -23 59 -23 l53 0 6 -292 c4
-161 10 -660 14 -1109 l6 -816 -61 -114 c-58 -108 -69 -122 -209 -259 -81 -80
-181 -177 -222 -215 -66 -62 -84 -87 -152 -215 -68 -129 -80 -160 -108 -281
-22 -93 -35 -180 -41 -277 -5 -78 -12 -147 -15 -152 -4 -7 -14 -6 -28 2 -20
10 -281 200 -301 218 -14 14 -104 325 -135 470 -29 133 -30 142 -40 620 -6
267 -18 751 -26 1075 -8 325 -14 754 -13 954 l3 365 44 25 c37 22 48 36 67 86
l22 61 -14 364 c-64 1695 -82 2118 -104 2435 -9 131 -45 416 -72 567 -7 37 -9
71 -5 75 4 4 220 10 480 13 259 4 529 7 599 8 74 1 129 -2 133 -8z m1303 -20
c244 -10 448 -22 452 -26 5 -5 2 -83 -7 -174 -14 -145 -14 -352 -8 -1737 l7
-1572 29 -5 c16 -4 43 -9 59 -12 l30 -6 0 -861 -1 -862 -33 -156 c-28 -133
-39 -167 -77 -234 -43 -75 -48 -80 -199 -188 -316 -226 -422 -311 -484 -391
-32 -42 -62 -76 -67 -76 -11 0 -174 99 -263 160 -39 27 -109 90 -155 140 l-83
91 -18 128 c-17 122 -18 154 -4 563 8 238 23 704 33 1035 10 331 22 606 26
612 3 6 19 11 34 11 l28 0 7 143 c3 78 15 372 26 652 18 464 33 857 74 1915
l14 365 -23 145 c-13 80 -29 181 -35 225 -7 44 -18 92 -26 106 -7 15 -10 29
-7 33 4 4 57 4 117 1 61 -4 311 -15 554 -25z m2101 -9 c12 -8 11 -136 -3 -887
-27 -1387 -35 -1721 -46 -1994 -6 -140 -17 -426 -25 -635 -15 -380 -23 -474
-46 -517 -12 -23 -251 -449 -605 -1080 l-184 -328 0 -235 c0 -168 -3 -235 -11
-235 -7 0 -51 21 -98 46 -111 58 -161 114 -212 238 l-38 91 0 340 c0 187 4
396 9 465 9 115 30 435 65 974 9 143 17 211 25 216 7 4 30 11 51 14 37 6 38 7
43 59 3 28 13 187 21 352 17 314 47 850 65 1140 5 94 14 285 20 425 47 1227
48 1298 10 1448 -17 66 -19 86 -10 97 11 13 84 15 484 15 259 0 477 -4 485 -9z
m-3169 -186 c39 -40 49 -45 89 -45 41 0 49 4 87 48 23 26 45 44 48 41 11 -11
26 -177 26 -289 -1 -58 -7 -188 -15 -290 -8 -102 -15 -190 -15 -197 0 -7 -14
-28 -31 -48 -28 -32 -36 -35 -83 -35 -47 0 -55 4 -90 39 -29 30 -43 57 -62
122 -23 80 -24 95 -24 391 0 245 3 308 13 308 7 0 33 -20 57 -45z m1785 16
c26 -51 77 -83 126 -79 39 3 44 6 51 36 17 67 33 28 51 -129 23 -202 25 -277
9 -374 -22 -128 -30 -153 -69 -190 -30 -29 -43 -35 -79 -35 -69 0 -92 14 -119
72 -25 53 -25 55 -25 365 0 296 5 363 29 363 6 0 17 -13 26 -29z m1992 -63
c-3 -13 -11 -59 -17 -104 -7 -44 -15 -85 -18 -91 -12 -17 -103 -43 -152 -43
-44 0 -49 3 -74 39 -23 33 -27 47 -24 97 l3 58 80 0 c73 1 84 4 125 33 55 39
85 43 77 11z m-5444 -149 c32 -153 39 -291 16 -354 -12 -35 -18 -40 -49 -43
-29 -2 -41 3 -67 30 -40 42 -58 112 -78 298 -22 205 -25 190 38 183 38 -3 57
-1 72 11 11 8 25 14 30 12 6 -1 23 -63 38 -137z m5684 -5751 c97 -89 38 -230
-81 -197 -58 16 -109 127 -82 178 30 55 114 65 163 19z m-416 -27 c32 -32 39
-46 39 -78 0 -77 -59 -116 -135 -91 -46 16 -72 49 -81 105 -6 38 -3 45 24 73
24 24 39 30 72 30 36 0 48 -6 81 -39z m-453 -1 c37 -23 72 -75 72 -108 0 -87
-102 -132 -181 -79 -65 44 -69 149 -6 187 41 25 73 25 115 0z m-428 -13 c34
-17 70 -74 70 -111 -1 -40 -20 -65 -70 -87 -35 -16 -45 -16 -77 -5 -22 7 -47
26 -60 45 -22 32 -22 43 -7 118 9 44 91 67 144 40z m-403 -499 c4 -7 15 -159
25 -338 9 -179 26 -496 37 -705 22 -404 25 -482 15 -472 -13 12 -20 56 -134
830 -6 38 -19 157 -30 265 -11 108 -24 233 -29 277 -9 81 -6 100 27 138 18 20
77 23 89 5z m-634 -22 c19 -19 33 -60 46 -131 25 -140 261 -2058 255 -2080 -9
-38 -40 -58 -89 -59 -32 -1 -50 5 -64 19 -23 23 -43 114 -65 305 -27 227 -45
374 -56 450 -6 41 -33 260 -60 485 -28 226 -57 461 -65 523 -8 63 -18 178 -21
256 -8 173 0 207 54 230 47 19 48 19 65 2z m338 -16 c20 -27 38 -122 69 -355
10 -82 30 -233 44 -335 39 -283 76 -554 91 -670 8 -58 26 -190 40 -295 23
-168 33 -242 61 -476 6 -49 4 -59 -15 -78 -24 -24 -106 -30 -134 -9 -27 21
-54 172 -138 778 -121 867 -147 1091 -150 1282 -3 130 -2 139 19 163 30 35 86
32 113 -5z m-657 0 c40 -15 54 -61 71 -230 26 -256 53 -523 75 -735 11 -110
29 -288 40 -395 48 -478 60 -583 80 -702 11 -70 18 -139 14 -153 -7 -27 -67
-65 -104 -65 -11 0 -36 15 -55 33 l-34 32 -31 245 c-26 211 -69 618 -150 1440
-11 107 -24 243 -30 302 -8 78 -8 112 0 128 6 11 8 24 5 29 -10 16 14 61 37
71 31 12 52 12 82 0z m-284 -101 c0 -68 -15 -85 -29 -32 -21 80 -23 93 -17
109 6 15 8 15 26 -1 16 -14 20 -31 20 -76z m3034 21 c47 -42 62 -87 42 -133
-24 -59 -89 -82 -146 -52 -46 24 -70 62 -70 112 0 96 100 137 174 73z m-419
-23 c80 -80 41 -197 -65 -197 -38 0 -85 31 -105 70 -41 80 4 160 90 160 40 0
52 -5 80 -33z m-433 -14 c70 -63 61 -153 -18 -183 -51 -20 -84 -12 -125 29
-32 32 -39 46 -39 78 0 95 111 140 182 76z m-455 -13 c39 -23 49 -41 58 -102
7 -44 5 -50 -23 -77 -38 -39 -73 -47 -120 -29 -25 9 -44 26 -59 53 -27 51 -28
82 -3 123 33 53 91 66 147 32z m-2174 -337 c10 -17 29 -92 43 -165 22 -121 24
-149 18 -303 -6 -156 -10 -185 -51 -350 -55 -223 -122 -389 -166 -411 -31 -17
-75 -12 -83 9 -2 7 29 112 69 233 64 189 77 241 97 376 22 155 22 161 6 325
-8 93 -22 192 -30 222 -14 53 -14 54 12 78 33 31 61 26 85 -14z m-968 -31 c33
-24 35 -37 25 -197 -6 -86 -13 -161 -16 -166 -7 -12 -60 16 -78 43 -12 17 -16
50 -16 140 0 117 0 117 31 153 33 37 38 39 54 27z m727 -19 c28 -31 39 -94 46
-268 10 -251 1 -400 -32 -515 -39 -132 -68 -173 -118 -162 -30 6 -30 37 1 160
30 117 31 124 31 383 1 145 -2 283 -6 306 -9 55 1 92 29 103 31 12 32 12 49
-7z m-478 -33 c5 -5 13 -85 17 -177 4 -92 17 -222 28 -288 12 -66 21 -128 21
-137 0 -33 -25 -18 -73 43 -49 60 -49 62 -68 187 -24 163 -25 338 -3 371 13
18 22 21 43 16 14 -3 30 -10 35 -15z m233 -25 c32 -23 52 -97 63 -237 12 -160
0 -326 -26 -345 -57 -42 -77 0 -104 222 -27 225 -27 328 0 355 24 24 38 25 67
5z m4080 -189 c40 -43 49 -77 34 -127 -20 -66 -87 -87 -159 -50 -43 22 -62 55
-62 110 0 103 116 144 187 67z m-458 -1 c38 -19 74 -93 65 -132 -25 -104 -157
-113 -209 -13 -53 103 42 198 144 145z m-418 -41 c102 -98 10 -250 -116 -192
-50 23 -82 127 -55 178 29 55 121 62 171 14z m-463 -4 c42 -26 75 -95 66 -139
-10 -47 -49 -81 -96 -81 -79 0 -138 54 -138 125 0 93 89 143 168 95z m-3989
-86 c18 -41 14 -102 -8 -114 -31 -16 -76 -12 -105 11 -20 16 -26 29 -26 58 0
46 22 68 70 73 47 5 55 1 69 -28z m-356 -5 c73 -33 47 -149 -33 -149 -38 0
-60 20 -67 62 -7 45 15 84 49 91 13 2 24 5 25 6 1 0 13 -4 26 -10z m2612 -41
c3 -18 15 -114 26 -213 63 -560 98 -850 113 -948 11 -76 11 -94 -2 -132 -12
-38 -20 -47 -51 -56 -20 -6 -50 -9 -66 -7 -51 5 -61 43 -90 338 -14 146 -32
320 -40 388 l-13 122 33 148 c19 81 39 188 44 237 15 128 21 155 31 155 5 0
12 -15 15 -32z m-1978 -19 c18 -16 16 -53 -4 -72 -26 -23 -71 -31 -88 -17 -20
17 -19 75 2 95 17 18 64 15 90 -6z m-929 -61 c5 -7 15 -30 23 -51 12 -34 11
-39 -8 -59 -25 -25 -77 -28 -98 -7 -26 26 -29 72 -5 102 23 29 70 37 88 15z
m678 -226 c-7 -45 -36 -86 -63 -90 -23 -3 -63 40 -63 67 0 36 25 66 60 72 54
8 73 -6 66 -49z m-337 22 c19 -14 22 -22 16 -53 -10 -55 -31 -81 -65 -81 -69
0 -69 118 0 143 23 8 24 8 49 -9z m-600 -28 c36 -58 23 -103 -36 -120 -71 -22
-121 105 -56 143 37 21 70 13 92 -23z m307 -111 c15 -23 15 -30 2 -63 -18 -47
-58 -64 -88 -37 -28 25 -26 70 5 100 31 32 60 32 81 0z m903 -8 c18 -22 -9
-49 -44 -45 -33 3 -47 34 -23 49 20 13 54 11 67 -4z m5111 -62 c33 -17 70 -81
70 -120 0 -34 -25 -82 -49 -95 -51 -27 -146 5 -171 58 -14 31 -12 92 4 121 27
48 91 64 146 36z m-423 -47 c32 -30 53 -70 53 -103 0 -119 -158 -145 -215 -35
-31 60 -8 137 49 161 32 13 86 2 113 -23z m-453 -19 c54 -42 71 -112 41 -169
-18 -35 -43 -50 -85 -50 -84 0 -151 95 -120 171 28 67 110 91 164 48z m-439
-30 c45 -40 61 -90 46 -147 -14 -52 -43 -72 -102 -72 -63 0 -94 26 -115 95
-14 50 -14 57 2 90 33 70 110 85 169 34z m-4364 -9 c32 -18 21 -112 -17 -137
-22 -14 -26 -14 -49 1 -58 38 -32 140 38 145 5 1 17 -4 28 -9z m341 -23 c15
-25 -18 -110 -45 -115 -27 -5 -75 17 -82 39 -9 26 15 71 45 86 27 14 70 9 82
-10z m-922 -45 c20 -16 21 -20 9 -65 -9 -36 -18 -51 -35 -58 -76 -28 -112 76
-42 125 29 20 41 20 68 -2z m311 -118 c14 -17 3 -88 -16 -104 -8 -6 -29 -10
-47 -8 -25 2 -35 9 -42 31 -25 71 59 136 105 81z m857 -6 c16 -16 15 -103 0
-115 -7 -6 -25 -13 -40 -17 -22 -5 -30 -1 -47 23 -29 40 -27 75 5 100 30 23
64 27 82 9z m-510 -150 c15 -15 15 -32 1 -80 -9 -35 -13 -38 -46 -38 -67 0
-93 52 -52 104 22 28 75 36 97 14z m294 -97 c8 -11 12 -36 10 -60 -4 -35 -7
-41 -27 -41 -13 0 -30 -3 -38 -6 -20 -7 -47 22 -47 52 0 30 41 74 69 74 11 0
26 -9 33 -19z m-812 -50 c27 -51 -1 -121 -47 -121 -59 0 -85 73 -43 118 26 28
75 29 90 3z m1175 -5 c26 -19 26 -94 -1 -113 -39 -29 -104 -2 -104 43 0 27 49
84 72 84 8 0 23 -6 33 -14z m-897 -71 c21 -15 23 -31 13 -108 -2 -17 -51 -27
-76 -15 -48 21 -44 100 5 125 32 16 31 16 58 -2z m1231 -37 c23 -40 5 -102
-31 -106 -43 -5 -78 24 -78 64 0 70 77 100 109 42z m-917 -72 c14 -20 8 -84
-8 -101 -25 -24 -75 -16 -93 16 -28 50 21 117 74 102 11 -3 23 -11 27 -17z
m-922 -85 c12 -24 7 -75 -10 -96 -15 -19 -64 -20 -79 -2 -8 10 -4 26 17 65 29
55 54 66 72 33z m1220 -11 c11 -21 7 -77 -6 -90 -5 -4 -23 -11 -40 -14 -53
-12 -82 41 -53 95 20 39 80 44 99 9z m-909 -70 c14 -8 19 -21 19 -55 0 -48
-19 -75 -51 -75 -54 0 -81 49 -54 99 20 40 49 50 86 31z m1186 -12 c13 -17 23
-82 15 -95 -10 -17 -78 -19 -96 -4 -20 17 -21 60 0 89 17 24 65 30 81 10z
m-813 -44 c12 -5 16 -20 16 -60 0 -49 -3 -56 -25 -66 -18 -8 -35 -9 -53 -2
-23 8 -27 16 -30 53 -5 65 35 97 92 75z m1120 -33 c12 -13 16 -32 14 -57 -3
-36 -6 -39 -42 -48 -33 -7 -41 -6 -53 10 -20 27 -16 62 12 89 29 30 46 31 69
6z m-819 -61 c3 -5 8 -32 10 -60 4 -41 1 -51 -15 -60 -29 -16 -58 -12 -80 10
-26 26 -25 60 1 94 21 27 71 36 84 16z m1129 -55 c23 -49 13 -69 -38 -73 -46
-4 -66 11 -66 50 0 49 17 70 53 66 26 -2 35 -10 51 -43z m-2386 -18 c2 -14 -2
-35 -8 -47 -18 -34 -90 -22 -90 16 0 14 71 64 85 60 6 -1 11 -14 13 -29z m333
-27 c15 -8 19 -21 19 -60 0 -42 -4 -52 -25 -66 -51 -34 -103 7 -91 72 10 51
54 76 97 54z m401 -52 c9 -7 19 -32 23 -55 5 -35 3 -45 -15 -63 -22 -22 -59
-21 -87 2 -22 18 -15 76 12 103 27 28 44 31 67 13z m875 -3 c31 -21 42 -94 17
-112 -22 -16 -76 -17 -92 -1 -7 7 -12 29 -12 49 0 29 6 43 26 58 32 25 34 25
61 6z m321 -105 c25 -15 32 -26 32 -51 0 -50 -16 -69 -58 -69 -53 0 -67 12
-67 61 0 31 6 46 24 60 29 23 29 23 69 -1z m-916 -77 c9 -10 18 -35 22 -55 5
-30 3 -41 -14 -58 -36 -36 -91 -21 -103 28 -16 66 56 129 95 85z m315 5 c5 -7
14 -30 20 -50 9 -29 8 -41 -4 -57 -30 -44 -113 -12 -113 43 0 52 70 99 97 64z
m932 -27 c29 -41 26 -66 -10 -92 -29 -21 -34 -21 -58 -8 -35 20 -41 79 -12
108 29 29 56 26 80 -8z m-2159 4 c21 -25 24 -89 5 -108 -34 -35 -105 -6 -105
44 0 23 18 60 34 71 18 13 53 9 66 -7z m418 -44 c21 -13 31 -76 18 -103 -17
-35 -79 -38 -101 -4 -38 58 27 143 83 107z m1212 -121 c24 -24 25 -38 3 -70
-31 -46 -52 -51 -83 -20 -22 22 -27 79 -8 98 19 19 66 14 88 -8z m-936 -129
c8 -47 7 -56 -9 -67 -29 -21 -72 -17 -89 8 -22 31 -20 60 5 92 16 21 28 26 53
24 29 -3 32 -6 40 -57z m1260 53 c19 -7 40 -77 31 -104 -10 -30 -52 -36 -83
-13 -34 26 -39 62 -12 96 22 27 36 32 64 21z m-1755 -53 c11 -11 23 -36 27
-56 8 -43 -15 -75 -54 -75 -61 0 -84 78 -37 125 29 30 39 31 64 6z m1142 -30
c33 -33 36 -52 13 -75 -18 -19 -94 -22 -112 -4 -18 18 -14 52 9 82 27 34 54
33 90 -3z m-323 -34 c23 -18 10 -70 -21 -85 -39 -19 -77 5 -77 48 0 51 55 72
98 37z m702 -127 c26 -26 34 -63 20 -89 -8 -16 -20 -21 -49 -21 -49 0 -65 19
-58 68 10 59 50 79 87 42z m-1245 -40 c37 -41 -19 -115 -70 -92 -29 14 -40 48
-26 85 9 22 17 27 44 27 21 0 41 -8 52 -20z m971 -121 c22 -25 12 -60 -25 -82
-36 -21 -45 -21 -65 -1 -23 23 -21 80 4 97 25 17 63 11 86 -14z m-667 -25 c39
-49 22 -94 -34 -94 -40 0 -55 16 -55 56 0 62 53 84 89 38z m344 -41 c21 -37
12 -67 -24 -78 -59 -19 -98 23 -74 80 13 32 18 36 47 33 24 -2 37 -11 51 -35z"/>
</g>
</svg>
